<?xml version="1.0" encoding="UTF-8" standalone="no"?>
<!-- Created with Inkscape (http://www.inkscape.org/) -->

<svg
   width="221.21284mm"
   height="105.10205mm"
   viewBox="0 0 221.21284 105.10205"
   version="1.1"
   id="svg1"
   xml:space="preserve"
   inkscape:export-filename=".\bitmap.svg"
   inkscape:export-xdpi="102.25476"
   inkscape:export-ydpi="102.25476"
   xmlns:inkscape="http://www.inkscape.org/namespaces/inkscape"
   xmlns:sodipodi="http://sodipodi.sourceforge.net/DTD/sodipodi-0.dtd"
   xmlns="http://www.w3.org/2000/svg"
   xmlns:svg="http://www.w3.org/2000/svg"><sodipodi:namedview
     id="namedview1"
     pagecolor="#ffffff"
     bordercolor="#000000"
     borderopacity="0.25"
     inkscape:showpageshadow="2"
     inkscape:pageopacity="0.0"
     inkscape:pagecheckerboard="0"
     inkscape:deskcolor="#d1d1d1"
     inkscape:document-units="mm"
     inkscape:zoom="0.5"
     inkscape:cx="-1003"
     inkscape:cy="1401"
     inkscape:window-width="1920"
     inkscape:window-height="1009"
     inkscape:window-x="1912"
     inkscape:window-y="-8"
     inkscape:window-maximized="1"
     inkscape:current-layer="layer1" /><defs
     id="defs1" /><g
     inkscape:label="Capa 1"
     inkscape:groupmode="layer"
     id="layer1"
     transform="translate(-368.73719,-492.66921)"><path
       d="M 368.73718,596.02822 478.76044,492.67225 v -0.001 l -110.02326,65.3464 z"
       style="fill:#ff7e35;stroke-width:0.3;stroke-linejoin:bevel;paint-order:stroke markers fill"
       id="path170"
       inkscape:export-filename="lineas2.svg"
       inkscape:export-xdpi="102.25476"
       inkscape:export-ydpi="102.25476" /><path
       d="m 424.36996,597.77126 54.39048,-105.09694 -5.2e-4,-0.002 -87.7688,105.09849 z"
       style="fill:#8f3824;stroke-width:0.3;stroke-linejoin:bevel;paint-order:stroke markers fill"
       id="path168" /><path
       d="m 469.61165,597.77126 9.14982,-105.08454 -10e-4,-0.01 -33.09359,105.09436 z"
       style="fill:#a33b57;stroke-width:0.3;stroke-linejoin:bevel;paint-order:stroke markers fill"
       id="path166" /><path
       d="M 511.85661,597.77126 478.76096,492.6707 c 0,0 -5.2e-4,0 -5.2e-4,0 l 9.15138,105.10056 z"
       style="fill:#a33b57;stroke-width:0.3;stroke-linejoin:bevel;paint-order:stroke markers fill"
       id="path164" /><path
       d="M 566.53286,597.77126 478.76199,492.67122 v 10e-4 l 54.39151,105.09901 z"
       style="fill:#8f3824;stroke-width:0.3;stroke-linejoin:bevel;paint-order:stroke markers fill"
       id="path162" /><path
       d="M 589.95004,558.70853 478.76251,492.6707 589.95004,597.12118 Z"
       style="fill:#ff7e35;stroke-width:0.3;stroke-linejoin:bevel;paint-order:stroke markers fill"
       id="path160" /><path
       d="m 368.73718,513.56865 v 26.39012 c 36.67426,-15.76263 73.34912,-31.52491 110.02326,-47.28755 v -0.002 c -36.67421,6.96627 -73.34895,13.93267 -110.02326,20.89898 z"
       style="fill:#ffb053;stroke-linejoin:bevel"
       id="path157" /><path
       d="m 588.77735,513.56865 v 26.39012 C 552.10309,524.19614 515.42823,508.43386 478.75409,492.67122 v -0.002 c 36.67421,6.96627 73.34895,13.93267 110.02326,20.89898 z"
       style="fill:#ffb053;stroke-linejoin:bevel"
       id="path179" /></g></svg>
