<svg width="37" height="37" viewBox="0 0 37 37" fill="none" xmlns="http://www.w3.org/2000/svg">
<path d="M16.9966 0.0976391C15.552 0.410341 14.1761 1.14832 13.0817 2.18649C11.9497 3.25593 11.2493 4.31286 10.7177 5.74503C10.2174 7.0834 10.0673 8.03401 9.99224 10.2417C9.91719 12.5494 9.76709 13.7565 9.36059 15.2887C8.98535 16.7209 8.38497 17.9404 7.66577 18.7096C7.35933 19.0536 7.27803 19.26 7.36558 19.5289C7.45314 19.7978 7.65326 19.9354 8.42875 20.2732C9.57322 20.7735 11.2055 21.2613 12.5438 21.4989C12.8003 21.5427 13.0191 21.6053 13.0316 21.6428C13.0442 21.6803 12.9941 21.9492 12.9128 22.2432L12.7752 22.7748L9.92344 23.494C7.05288 24.2195 6.48378 24.4008 5.70829 24.8574C4.12604 25.7892 2.93154 27.2714 2.36868 28.9913C2.04348 29.9857 1.89964 31.274 2.07475 31.6117C2.29364 32.0307 0.949041 31.9995 17.9973 31.9995C35.0455 31.9995 33.7009 32.0307 33.9198 31.6117C34.0074 31.4491 34.0136 31.3053 33.9823 30.8612C33.8072 28.3346 32.4501 26.1332 30.2863 24.8574C29.5108 24.4008 28.9417 24.2195 26.0711 23.494L23.2193 22.7748L23.0817 22.2432C23.0004 21.9492 22.9504 21.6803 22.9629 21.6428C22.9754 21.6053 23.1943 21.5427 23.4507 21.4989C24.7203 21.2675 26.3025 20.8047 27.4282 20.3232C28.31 19.9479 28.5414 19.7978 28.6227 19.5352C28.7165 19.26 28.6415 19.0536 28.3288 18.7096C26.8591 17.1211 26.0086 13.894 26.0023 9.92273C25.9961 6.04523 25.3081 3.30596 24.0448 2.1302C23.5258 1.64864 23.038 1.436 22.2437 1.34219L21.5933 1.26714L21.1868 0.93568C20.3988 0.285259 19.6983 0.0538616 18.3725 0.0100822C17.6971 -0.0149345 17.4219 0.00382805 16.9966 0.0976391Z" fill="white"/>
</svg>
