<svg width="35" height="31" viewBox="0 0 35 31" fill="none" xmlns="http://www.w3.org/2000/svg">
<path d="M6.93555 0.00208011C6.88361 -0.00248293 6.83519 0.00134365 6.78728 0.00512337H0.926535C0.413262 0.00512337 0 0.418391 0 0.931672V1.0944C0 1.60767 0.413262 2.02094 0.926535 2.02094H6.44358L10.2068 18.7641C9.13983 19.2606 8.4173 20.3366 8.41681 21.5627C8.4174 23.0162 9.42079 24.2294 10.8204 24.5419C10.8924 24.5647 10.9674 24.5791 11.0459 24.5837C11.0587 24.586 11.0714 24.5883 11.0843 24.5898V24.5875C11.0894 24.5876 11.0945 24.5898 11.0999 24.5898H30.0196C30.5329 24.5898 30.9462 24.1765 30.9462 23.6632V23.5005C30.9462 22.9872 30.5329 22.574 30.0196 22.574H11.0999C11.0824 22.574 11.0662 22.5778 11.049 22.5785C10.6515 22.3965 10.3932 22.0017 10.3908 21.563C10.393 21.1161 10.6612 20.7145 11.0714 20.5372C11.116 20.5441 11.1603 20.551 11.2067 20.551H29.6874C29.6896 20.551 29.6896 20.5506 29.6912 20.5506C29.6942 20.5506 29.6957 20.551 29.6998 20.551L29.85 20.5487C30.3231 20.5449 30.8073 20.1749 30.9355 19.7195L34.9691 5.38607C35.0208 5.20238 35.0056 5.03434 34.9391 4.89866C34.8611 4.46536 34.4853 4.13826 34.0289 4.13826H8.97685L8.27956 1.03585C8.1965 0.666293 7.90833 0.333837 7.55871 0.153802C7.41369 0.0597425 7.24099 0.00476653 7.05457 0.00476653H6.96864L6.93555 0.00208011ZM9.43003 6.15406H32.8988L29.4147 18.5344H12.2123L9.43003 6.15406ZM13.4213 24.6005C12.6016 24.6005 11.8155 24.9262 11.2359 25.5059C10.6563 26.0856 10.3307 26.8718 10.3307 27.6915C10.3307 28.5112 10.6563 29.2974 11.2359 29.8771C11.8155 30.4567 12.6016 30.7824 13.4213 30.7825C13.8273 30.7825 14.2292 30.7026 14.6042 30.5472C14.9793 30.3919 15.32 30.1642 15.607 29.8772C15.8941 29.5902 16.1218 29.2494 16.2771 28.8744C16.4324 28.4994 16.5124 28.0974 16.5124 27.6915C16.5124 27.2856 16.4324 26.8836 16.2771 26.5086C16.1218 26.1336 15.8941 25.7928 15.6071 25.5058C15.32 25.2187 14.9793 24.9911 14.6042 24.8357C14.2292 24.6804 13.8273 24.6005 13.4213 24.6005ZM27.8263 24.6005C27.0065 24.6005 26.2204 24.9262 25.6408 25.5059C25.0612 26.0856 24.7356 26.8718 24.7356 27.6915C24.7356 28.5112 25.0612 29.2974 25.6408 29.8771C26.2204 30.4567 27.0065 30.7824 27.8263 30.7825C28.2322 30.7825 28.6341 30.7026 29.0092 30.5472C29.3842 30.3919 29.7249 30.1642 30.012 29.8772C30.299 29.5902 30.5267 29.2494 30.682 28.8744C30.8373 28.4994 30.9173 28.0974 30.9173 27.6915C30.9173 27.2856 30.8373 26.8836 30.682 26.5086C30.5267 26.1336 30.299 25.7928 30.012 25.5058C29.7249 25.2187 29.3842 24.9911 29.0092 24.8357C28.6341 24.6804 28.2322 24.6005 27.8263 24.6005ZM13.4213 26.5661C13.7198 26.5661 14.006 26.6847 14.2171 26.8957C14.4281 27.1068 14.5467 27.393 14.5467 27.6915C14.5467 27.99 14.4281 28.2762 14.2171 28.4872C14.006 28.6983 13.7198 28.8168 13.4213 28.8169C13.1229 28.8168 12.8366 28.6983 12.6256 28.4872C12.4146 28.2762 12.296 27.99 12.296 27.6915C12.296 27.393 12.4146 27.1068 12.6256 26.8958C12.8366 26.6847 13.1229 26.5661 13.4213 26.5661ZM27.8263 26.5661C28.1247 26.5661 28.411 26.6847 28.622 26.8958C28.833 27.1068 28.9516 27.393 28.9516 27.6915C28.9516 27.99 28.833 28.2762 28.622 28.4872C28.4109 28.6983 28.1247 28.8168 27.8263 28.8169C27.5278 28.8168 27.2416 28.6983 27.0305 28.4872C26.8195 28.2762 26.7009 27.99 26.7009 27.6915C26.7009 27.393 26.8195 27.1068 27.0305 26.8958C27.2416 26.6847 27.5278 26.5661 27.8263 26.5661Z" fill="white"/>
</svg>
