<svg width="45" height="56" viewBox="0 0 45 56" fill="none" xmlns="http://www.w3.org/2000/svg">
<path d="M6.98302 0.847305C6.17419 1.32756 6.19908 1.13054 6.19908 8.46981V15.1195L5.42759 15.6367C4.44456 16.2893 2.91401 17.8163 2.31673 18.7153C1.60745 19.7743 1.02261 21.018 0.636864 22.2248L0.288448 23.3208L0.251117 36.731C0.213787 51.5573 0.15157 50.4613 1.01017 50.9662C1.39591 51.2002 1.707 51.2125 10.5418 51.2125H19.6629L20.3473 51.8282C24.0927 55.2269 29.8292 56.3968 34.7194 54.7836C39.8835 53.0719 43.6663 48.7373 44.5871 43.4668C44.8235 42.1246 44.8235 39.8341 44.5871 38.455C43.7783 33.911 40.8416 30.0443 36.6357 28.0002C32.716 26.0915 28.5599 25.9437 24.5407 27.5692L23.3959 28.0248L23.3337 25.7344C23.2964 23.9242 23.2217 23.2469 23.0226 22.4834C22.6991 21.3136 21.9649 19.7373 21.2556 18.6906C20.5837 17.7055 18.8914 16.0431 18.0452 15.5628L17.3982 15.1934V8.50676C17.3982 1.13054 17.4231 1.32756 16.6142 0.847305C16.2409 0.613335 15.9547 0.601021 11.7986 0.601021C7.64252 0.601021 7.35632 0.613335 6.98302 0.847305ZM14.1629 5.15729V6.51185H11.7986H9.43438V5.15729V3.80272H11.7986H14.1629V5.15729ZM14.1629 12.0533V14.393H11.7986H9.43438V12.0533V9.71355H11.7986H14.1629V12.0533ZM15.905 18.0503C17.3982 18.9123 18.8416 20.5993 19.4887 22.2248C20.0113 23.5178 20.1357 24.5768 20.1357 27.5445V30.3522L19.6256 30.8324C18.1946 32.2116 16.5769 34.9577 15.9796 37.0511C15.6437 38.221 15.4072 39.9203 15.4072 41.1148C15.4072 42.9127 15.9921 45.4617 16.7884 47.0749C16.9875 47.4813 17.1493 47.8507 17.1493 47.9123C17.1493 47.9615 14.0758 48.0108 10.3054 48.0108H3.46152V45.6711V43.3314H7.75451C12.5203 43.3314 12.707 43.3068 13.1674 42.5679C13.4163 42.1738 13.4163 42.0138 13.3914 33.5169L13.3541 24.8724L12.9932 24.5029C12.7817 24.2936 12.4208 24.0596 12.1844 23.9981C11.9355 23.9242 9.96944 23.8749 7.66741 23.8749H3.61085L3.7975 23.1853C4.35745 21.0426 5.95021 18.9985 7.82917 17.9641L8.50112 17.5947H11.7986H15.0961L15.905 18.0503ZM10.181 33.6647V40.1297H6.82125H3.46152V33.6647V27.1998H6.82125H10.181V33.6647ZM31.6708 29.7981C35.3914 30.3029 38.6765 32.6426 40.3563 36.0044C41.2274 37.7407 41.4513 38.7382 41.4638 40.9301C41.4762 42.4817 41.4265 42.9373 41.19 43.7993C40.0577 47.9369 36.8597 51.0031 32.6289 52.0375C31.3224 52.3454 28.8337 52.3208 27.44 51.976C24.1674 51.1632 21.3676 48.959 19.8495 45.9789C18.0701 42.4571 18.3937 37.9993 20.6708 34.6499C23.0848 31.1157 27.3778 29.2193 31.6708 29.7981Z" fill="#E3BF52"/>
</svg>
