<svg width="175" height="154" viewBox="0 0 175 154" fill="none" xmlns="http://www.w3.org/2000/svg">
<path d="M35.0002 0.810142C34.7421 0.787465 34.5014 0.806482 34.2633 0.825267H5.13687C2.58604 0.825267 0.532227 2.8791 0.532227 5.42998V6.23869C0.532227 8.78953 2.58604 10.8434 5.13687 10.8434H32.5552L51.2573 94.0525C45.9549 96.52 42.3641 101.867 42.3617 107.961C42.3646 115.184 47.3512 121.214 54.307 122.767C54.6645 122.88 55.0374 122.952 55.4274 122.975C55.491 122.986 55.5543 122.997 55.6183 123.005V122.993C55.6436 122.994 55.6691 123.005 55.6959 123.005H149.722C152.273 123.005 154.327 120.951 154.327 118.4V117.591C154.327 115.041 152.273 112.987 149.722 112.987H55.6958C55.6091 112.987 55.5283 113.006 55.4428 113.009C53.4674 112.105 52.1837 110.143 52.1721 107.963C52.183 105.741 53.5155 103.746 55.5542 102.865C55.7758 102.899 55.9962 102.933 56.2269 102.933H148.071C148.082 102.933 148.082 102.931 148.09 102.931C148.105 102.931 148.113 102.933 148.133 102.933L148.879 102.922C151.23 102.903 153.637 101.064 154.274 98.8009L174.32 27.5672C174.577 26.6543 174.501 25.8192 174.171 25.1449C173.783 22.9915 171.916 21.3659 169.647 21.3659H45.1449L41.6796 5.94774C41.2668 4.11111 39.8347 2.45889 38.0971 1.56416C37.3764 1.09671 36.5181 0.823493 35.5917 0.823493H35.1646L35.0002 0.810142ZM47.3971 31.384H164.031L146.716 92.9113H61.2244L47.3971 31.384ZM67.2329 123.058C63.1591 123.058 59.2522 124.677 56.3717 127.558C53.4913 130.439 51.8731 134.346 51.8733 138.42C51.8731 142.493 53.4913 146.4 56.3717 149.281C59.2522 152.162 63.1591 153.781 67.2329 153.781C69.2503 153.781 71.2478 153.384 73.1116 152.612C74.9754 151.84 76.6689 150.708 78.0954 149.282C79.5218 147.856 80.6534 146.162 81.4253 144.298C82.1973 142.434 82.5946 140.437 82.5945 138.42C82.5946 136.402 82.1973 134.405 81.4253 132.541C80.6534 130.677 79.5219 128.984 78.0954 127.557C76.6689 126.131 74.9754 124.999 73.1116 124.227C71.2478 123.455 69.2503 123.058 67.2329 123.058ZM138.822 123.058C134.748 123.058 130.841 124.677 127.961 127.558C125.08 130.439 123.462 134.346 123.462 138.42C123.462 142.493 125.08 146.4 127.961 149.281C130.841 152.162 134.748 153.781 138.822 153.781C140.839 153.781 142.837 153.384 144.7 152.612C146.564 151.84 148.258 150.708 149.684 149.282C151.111 147.856 152.242 146.162 153.014 144.298C153.786 142.434 154.183 140.437 154.183 138.42C154.183 136.402 153.786 134.405 153.014 132.541C152.242 130.677 151.111 128.984 149.684 127.557C148.258 126.131 146.564 124.999 144.7 124.227C142.837 123.455 140.839 123.058 138.822 123.058ZM67.2329 132.827C68.7162 132.827 70.1387 133.416 71.1876 134.465C72.2364 135.514 72.8257 136.936 72.8258 138.42C72.8257 139.903 72.2364 141.325 71.1876 142.374C70.1387 143.423 68.7162 144.012 67.2329 144.012C65.7496 144.012 64.3272 143.423 63.2783 142.374C62.2295 141.325 61.6402 139.903 61.64 138.42C61.6402 136.936 62.2295 135.514 63.2783 134.465C64.3271 133.416 65.7496 132.827 67.2329 132.827ZM138.822 132.827C140.305 132.827 141.728 133.416 142.776 134.465C143.825 135.514 144.415 136.936 144.415 138.42C144.414 139.903 143.825 141.325 142.776 142.374C141.728 143.423 140.305 144.012 138.822 144.012C137.339 144.012 135.916 143.423 134.867 142.374C133.818 141.325 133.229 139.903 133.229 138.42C133.229 136.936 133.818 135.514 134.867 134.465C135.916 133.416 137.339 132.827 138.822 132.827Z" fill="black"/>
</svg>
