<svg width="54" height="54" viewBox="0 0 54 54" fill="none" xmlns="http://www.w3.org/2000/svg">
<g clip-path="url(#clip0_532_38)">
<path d="M41.9317 25.0662L25.324 35.7631L42.551 6.65332L41.9317 25.0662Z" fill="#E3BF52"/>
<path d="M23.5572 34.5529L17.949 30.327L25.9945 0L31.1012 21.0435L23.5572 34.5529Z" fill="#E3BF52"/>
<path d="M16.228 29.0553L12.9884 26.6347L10.3669 7.42773L19.0318 18.8773L16.228 29.0553Z" fill="#E3BF52"/>
<path d="M11.8727 45.1986L23.4672 37.2143L0 19.6504L11.8727 45.1986Z" fill="#E3BF52"/>
<path d="M30.1837 35.1132L30.1883 35.1201L12.8274 47.0746C14.186 49.2851 17.986 54.0004 25.6859 54.0004C35.7423 54.0004 38.8376 45.9544 38.8376 45.9544L54.0001 18.7227L30.1837 35.1132Z" fill="#E3BF52"/>
</g>
<defs>
<clipPath id="clip0_532_38">
<rect width="54" height="54" fill="white"/>
</clipPath>
</defs>
</svg>
